<svg width="408" height="204" viewBox="0 0 408 204" fill="none" xmlns="http://www.w3.org/2000/svg">
<path d="M5.66244e-07 160H78V140.2C67 149.6 55.6 158 41.6 158H18V-2.38419e-06H5.66244e-07V160ZM98.6391 49.8C104.839 49.8 109.639 45 109.639 38.8C109.639 32.6 104.839 27.8 98.6391 27.8C92.4391 27.8 87.6391 32.6 87.6391 38.8C87.6391 45 92.4391 49.8 98.6391 49.8ZM90.0391 60C92.2391 65.4 93.2391 72.6 93.2391 82.8V160H109.239V82.4C109.239 72.4 108.039 65.4 106.039 60H90.0391ZM118.633 118.2C119.033 148.2 132.633 162.8 155.633 162.8C166.233 162.8 177.433 159.6 181.833 145V180.8C181.833 190.8 183.033 198 185.033 203.2H201.033C198.833 197.8 197.833 190.6 197.833 180.2V60H181.833V69.4C177.633 60 167.833 56.8 159.833 56.8C136.633 56.8 118.833 71.6 118.633 117.2C118.633 117.4 118.633 117.6 118.633 117.8V118.2ZM134.633 117.6C134.833 70.6 149.233 59.6 163.233 59.6C173.433 59.6 181.833 66.8 181.833 80V129.6C181.833 154.4 170.033 160 157.233 160C145.233 160 134.633 149.8 134.633 117.6ZM212.286 122C212.286 148.4 220.286 163.2 243.486 163.2C251.886 163.2 262.486 159.6 266.086 148.8C266.686 153.4 267.486 157 268.686 160H284.686C282.486 154.6 281.486 147.4 281.486 137V60H265.486V137.6V140C265.486 153.2 257.086 160.4 246.886 160.4C232.886 160.4 228.286 149.4 228.286 121.6V82.2C228.286 72.2 227.086 65.2 225.086 60H209.086C211.286 65.4 212.286 72.6 212.286 83V122ZM305.28 49.8C311.48 49.8 316.28 45 316.28 38.8C316.28 32.6 311.48 27.8 305.28 27.8C299.08 27.8 294.28 32.6 294.28 38.8C294.28 45 299.08 49.8 305.28 49.8ZM296.68 60C298.88 65.4 299.88 72.6 299.88 82.8V160H315.88V82.4C315.88 72.4 314.68 65.4 312.68 60H296.68ZM325.273 118.2C325.673 148.2 339.273 162.8 362.273 162.8C373.073 162.8 384.473 159.4 388.673 144.2C389.073 151 390.273 156 391.673 160H407.673C405.473 154.6 404.473 147.4 404.473 137V30.2C404.473 12.4 401.273 5.39999 397.273 -2.38419e-06H381.273C385.473 5.39999 388.473 12.6 388.473 31V69.4C384.273 60 374.473 56.8 366.473 56.8C343.273 56.8 325.473 71.6 325.273 117.2C325.273 117.4 325.273 117.6 325.273 117.8V118.2ZM341.273 117.6C341.473 70.6 355.873 59.6 369.873 59.6C380.073 59.6 388.473 66.8 388.473 80V129.6C388.473 154.4 376.673 160 363.873 160C351.873 160 341.273 149.8 341.273 117.6Z" fill="white"/>
</svg>
